<svg xmlns="http://www.w3.org/2000/svg" xmlns:xlink="http://www.w3.org/1999/xlink" width="375pt" height="374.999991pt" viewBox="0 0 375 374.999991" version="1.2">
  <defs>
    <clipPath id="green-houp-clip">
      <path d="M 37.5 37.5 L 238.5 37.5 L 238.5 238.5 L 37.5 238.5 Z M 37.5 37.5 "/>
    </clipPath>
    <clipPath id="orange-houp-clip">
      <path d="M 136.238281 136.238281 L 337.238281 136.238281 L 337.238281 337.238281 L 136.238281 337.238281 Z M 136.238281 136.238281 "/>
    </clipPath>
  </defs>

  <g id="houp-logo">
    <g id="green-houp" clip-path="url(#green-houp-clip)" clip-rule="nonzero">
      <path style=" stroke:none;fill-rule:nonzero;fill:rgb(49.409485%,85.099792%,34.118652%);fill-opacity:1;" d="M 138.027344 37.5 C 82.507812 37.5 37.5 82.507812 37.5 138.027344 C 37.5 193.546875 82.507812 238.550781 138.027344 238.550781 C 193.546875 238.550781 238.550781 193.546875 238.550781 138.027344 C 238.550781 82.507812 193.546875 37.5 138.027344 37.5 Z M 138.027344 217.609375 C 94.074219 217.609375 58.441406 181.980469 58.441406 138.027344 C 58.441406 94.074219 94.074219 58.445312 138.027344 58.445312 C 181.980469 58.445312 217.609375 94.074219 217.609375 138.027344 C 217.609375 181.980469 181.980469 217.609375 138.027344 217.609375 Z M 138.027344 217.609375 "/>
    </g>
    <g id="orange-houp" clip-path="url(#orange-houp-clip)" clip-rule="nonzero">
      <path style=" stroke:none;fill-rule:nonzero;fill:rgb(100%,74.119568%,34.899902%);fill-opacity:1;" d="M 236.761719 136.238281 C 181.246094 136.238281 136.238281 181.246094 136.238281 236.761719 C 136.238281 292.28125 181.246094 337.289062 236.761719 337.289062 C 292.28125 337.289062 337.289062 292.28125 337.289062 236.761719 C 337.289062 181.246094 292.28125 136.238281 236.761719 136.238281 Z M 236.761719 316.347656 C 192.808594 316.347656 157.179688 280.714844 157.179688 236.765625 C 157.179688 192.8125 192.808594 157.179688 236.761719 157.179688 C 280.714844 157.179688 316.347656 192.8125 316.347656 236.765625 C 316.347656 280.714844 280.714844 316.347656 236.761719 316.347656 Z M 236.761719 316.347656 "/>
    </g>
  </g>
</svg>
